<svg width="24" height="18" viewBox="0 0 24 18" fill="none" xmlns="http://www.w3.org/2000/svg">
<g clip-path="url(#clip0_607_92699)">
<path d="M1.31105 15.322C1.47021 15.3283 1.63242 15.3321 1.79707 15.3321C1.98795 15.3321 2.14101 15.2628 2.25566 15.1249C2.37031 14.987 2.46544 14.8195 2.54167 14.6224C2.61789 14.4259 2.67522 14.225 2.71363 14.0216C2.75022 13.8251 2.78681 13.6633 2.82401 13.5335C2.82706 13.5234 2.8295 13.514 2.83133 13.5033L4.69982 4.24962C4.74312 4.0355 4.92606 3.88184 5.13767 3.88184L6.93298 3.88184C7.21716 3.88184 7.42937 4.152 7.37022 4.43854L5.32793 14.4259C5.21329 14.9643 5.07303 15.4373 4.90777 15.8447C4.74251 16.2516 4.51931 16.5866 4.24001 16.8498C3.96011 17.1131 3.61678 17.3096 3.20942 17.4412C2.80206 17.5722 2.29347 17.6383 1.68304 17.6383C1.46655 17.6383 1.24763 17.6251 1.02504 17.5986C0.970768 17.5923 0.917104 17.586 0.86283 17.5804C0.598168 17.5526 0.415832 17.2957 0.470716 17.0268L0.744525 15.6823C0.789652 15.46 0.985404 15.3057 1.20494 15.317C1.24031 15.3189 1.27568 15.3208 1.31105 15.322ZM5.16206 1.7438L5.45965 0.361482C5.50539 0.150512 5.68651 0 5.89629 0L7.70928 0C7.99529 0 8.2075 0.273316 8.14591 0.561745L7.84832 1.94407C7.80319 2.15504 7.62147 2.30555 7.41169 2.30555L5.59869 2.30555C5.31269 2.30555 5.10047 2.03223 5.16206 1.7438ZM9.97537 9.83369V9.99176V10.2481C9.97537 10.8388 10.1534 11.3187 10.5096 11.6864C10.8657 12.0542 11.4127 12.2381 12.1512 12.2381C12.4183 12.2381 12.6568 12.1959 12.8665 12.1096C13.0763 12.0246 13.2611 11.9163 13.4202 11.7847C13.5788 11.6537 13.7191 11.5026 13.8398 11.3319C13.9118 11.2311 13.9795 11.1323 14.0447 11.0359C14.1276 10.9118 14.2642 10.8394 14.4106 10.8394H16.2004C16.5322 10.8394 16.748 11.2003 16.6017 11.5076C16.4547 11.8162 16.2943 12.0996 16.1205 12.3571C15.8278 12.7904 15.4784 13.155 15.071 13.451C14.6637 13.7464 14.1898 13.9668 13.6495 14.111C13.1086 14.2552 12.4823 14.3277 11.7695 14.3277C11.1078 14.3277 10.5071 14.2357 9.96623 14.0518C9.42471 13.8679 8.96429 13.5889 8.58254 13.2142C8.2008 12.8395 7.90503 12.3767 7.69526 11.825C7.48487 11.2727 7.38059 10.6297 7.38059 9.89352C7.38059 9.07861 7.50743 8.29393 7.76234 7.53822C8.01663 6.78314 8.37581 6.11307 8.8405 5.52803C9.30396 4.94361 9.87414 4.47696 10.548 4.1287C11.2218 3.78044 11.9792 3.606 12.819 3.606C13.5056 3.606 14.1325 3.69858 14.6984 3.88184C15.2643 4.06636 15.7479 4.34471 16.1492 4.71942C16.5498 5.09412 16.8615 5.56077 17.084 6.11874C17.3066 6.67734 17.4182 7.3241 17.4182 8.06029C17.4182 8.44003 17.389 8.83804 17.3298 9.25557C17.2975 9.48417 17.1097 9.6561 16.8859 9.6561H9.99489C9.98147 9.72222 9.97537 9.78142 9.97537 9.83369ZM14.7362 7.10431C14.6911 6.848 14.6057 6.61499 14.4783 6.40465C14.3508 6.19431 14.1667 6.0268 13.9252 5.9021C13.6831 5.77741 13.3648 5.71507 12.9708 5.71507C12.5891 5.71507 12.2518 5.77426 11.9597 5.89203C11.667 6.01042 11.4127 6.16786 11.1962 6.36498C10.9797 6.56209 10.7986 6.79195 10.6523 7.05456C10.5059 7.3178 10.3821 7.59364 10.2803 7.88207L14.8027 7.88207C14.8033 7.62009 14.7808 7.36063 14.7362 7.10431ZM23.9878 4.44799L23.775 5.39704C23.728 5.60612 23.5475 5.75474 23.3396 5.75474H21.7675L20.7558 10.8193C20.7302 10.9244 20.7113 11.0195 20.6985 11.1052C20.6856 11.1908 20.6789 11.2525 20.6789 11.2928C20.6789 11.4767 20.7076 11.6178 20.7649 11.716C20.8222 11.8149 20.8954 11.8905 20.9845 11.9434C21.0735 11.9957 21.1723 12.0253 21.2802 12.0315C21.3882 12.0385 21.493 12.041 21.5949 12.041C21.7229 12.041 21.8492 12.0378 21.9754 12.0322C22.2718 12.0183 22.5017 12.2929 22.4383 12.5914L22.1809 13.798C22.1388 13.9951 21.9772 14.1425 21.7821 14.1589C21.6114 14.1734 21.4406 14.1866 21.2705 14.1986C20.9906 14.2187 20.7045 14.2281 20.4118 14.2281C20.0941 14.2281 19.7788 14.1986 19.4672 14.1394C19.1556 14.0802 18.8757 13.9756 18.6281 13.8245C18.3799 13.6733 18.1823 13.4661 18.036 13.2035C17.8896 12.9409 17.8232 12.5996 17.836 12.1789C17.836 12.0479 17.8482 11.8999 17.8738 11.7356C17.8988 11.5718 17.9311 11.398 17.9695 11.2135L19.0763 5.75474L17.864 5.75474C17.5762 5.75474 17.3633 5.47828 17.4286 5.18859L17.6414 4.23954C17.6884 4.03046 17.8689 3.88184 18.0768 3.88184H19.4581L19.9959 1.1575C20.038 0.94212 20.2216 0.787829 20.4338 0.787829L22.2315 0.787829C22.5145 0.787829 22.7261 1.05548 22.6694 1.34139L22.1681 3.88121H23.5524C23.8396 3.88247 24.0525 4.15893 23.9878 4.44799Z" fill="#FF6200"/>
</g>
<defs>
<clipPath id="clip0_607_92699">
<rect width="23.5385" height="18" fill="white" transform="translate(0.460938)"/>
</clipPath>
</defs>
</svg>
